<svg width="2835.151" height="925.005" viewBox="0 0 2835.151 925.005" xmlns="http://www.w3.org/2000/svg"><g id="svgGroup" stroke-linecap="round" fill-rule="evenodd" font-size="9pt" stroke="#ffffff" stroke-width="0.25mm" fill="#ffffff" style="stroke:#ffffff;stroke-width:0.25mm;fill:#ffffff"><path d="M 1314 743 L 1325 745 L 1325 885 Q 1337 889 1363 895 Q 1409 905 1450 905 A 687.556 687.556 0 0 0 1511.821 902.421 Q 1573.047 896.872 1611.612 879.386 A 155.934 155.934 0 0 0 1628.5 870.5 A 157.267 157.267 0 0 0 1655.812 849.789 Q 1685 821.656 1685 785 A 53.249 53.249 0 0 0 1651.133 734.282 Q 1625.978 722.259 1582.138 720.357 A 395.757 395.757 0 0 0 1565 720 L 1375 720 A 291.289 291.289 0 0 1 1331.543 716.973 Q 1309.521 713.643 1291.636 706.649 A 126.421 126.421 0 0 1 1260 689 A 108.448 108.448 0 0 1 1234.102 661.007 A 94.058 94.058 0 0 1 1220 610 A 95.196 95.196 0 0 1 1241.963 549.515 A 150.821 150.821 0 0 1 1267 525 A 159.424 159.424 0 0 1 1285.539 513.324 Q 1298.688 506.188 1315 500 A 175.324 175.324 0 0 1 1286.988 478.665 A 126.289 126.289 0 0 1 1261.5 445.5 A 139.886 139.886 0 0 1 1248.158 406.107 Q 1245.025 389.382 1245 370.301 A 234.278 234.278 0 0 1 1245 370 A 158.071 158.071 0 0 1 1256.498 308.789 A 147.712 147.712 0 0 1 1301 250.5 Q 1343.526 215.947 1416.04 207.634 A 430.518 430.518 0 0 1 1465 205 A 407.563 407.563 0 0 1 1515.502 208.006 A 327.437 327.437 0 0 1 1551.5 214.5 Q 1591 224 1615 240 Q 1623 223 1636 210 A 100.333 100.333 0 0 1 1708.628 180.007 A 128.11 128.11 0 0 1 1710 180 Q 1744 180 1767 203.5 A 79.311 79.311 0 0 1 1788.737 247.984 A 110.488 110.488 0 0 1 1790 265 A 88.695 88.695 0 0 1 1787.82 285.203 A 61.943 61.943 0 0 1 1774.5 312 A 49.468 49.468 0 0 1 1738.698 329.89 A 61.473 61.473 0 0 1 1735 330 A 144.204 144.204 0 0 1 1724.801 329.617 Q 1719.606 329.248 1713.878 328.523 A 244.865 244.865 0 0 1 1710 328 L 1700 325 L 1700 205 Q 1675.98 205 1654.521 226.336 A 114.189 114.189 0 0 0 1651 230 Q 1642 239 1635 255 A 144.067 144.067 0 0 1 1684.753 360.149 A 193.866 193.866 0 0 1 1685 370 A 158.071 158.071 0 0 1 1673.502 431.211 A 147.712 147.712 0 0 1 1629 489.5 Q 1586.474 524.053 1513.96 532.366 A 430.518 430.518 0 0 1 1465 535 A 357.138 357.138 0 0 1 1388.931 527.199 A 293.585 293.585 0 0 1 1335 510 L 1315 520 A 105.154 105.154 0 0 0 1309.238 523.701 Q 1306.339 525.709 1304.031 527.658 A 42.418 42.418 0 0 0 1300 531.5 A 19.078 19.078 0 0 0 1295.031 543.765 A 24.7 24.7 0 0 0 1295 545 A 26.269 26.269 0 0 0 1305.258 566.342 A 41.736 41.736 0 0 0 1312.5 571 Q 1330 580 1375 580 L 1565 580 A 208.12 208.12 0 0 1 1613.717 585.376 A 139.467 139.467 0 0 1 1682.5 623.5 Q 1722.883 664.833 1724.895 737.316 A 277.032 277.032 0 0 1 1725 745 A 152.804 152.804 0 0 1 1674.086 862.031 A 200.654 200.654 0 0 1 1658.5 875 A 214.119 214.119 0 0 1 1596.552 906.433 Q 1540.438 925 1460 925 Q 1371 925 1315 909 A 315.215 315.215 0 0 1 1284.526 898.707 Q 1251.727 885.578 1234.5 868 A 100.738 100.738 0 0 1 1220.302 850.051 Q 1210 833.156 1210 815 A 91.368 91.368 0 0 1 1213.004 790.947 A 67.227 67.227 0 0 1 1230.5 760.5 A 68.718 68.718 0 0 1 1268.605 741.322 A 97.635 97.635 0 0 1 1285 740 A 72.81 72.81 0 0 1 1289.638 740.176 Q 1298.086 740.727 1314 743 Z M 2400 715 L 2375 715 L 2375 545 L 2415 545 Q 2428 587 2453 623 A 211.453 211.453 0 0 0 2490.1 664.836 A 142.676 142.676 0 0 0 2585 700 A 137.211 137.211 0 0 0 2609.179 698.011 Q 2622.204 695.675 2632.488 690.597 A 64.23 64.23 0 0 0 2648.5 679.5 A 65.718 65.718 0 0 0 2666.173 649.614 Q 2669.253 639.024 2669.854 626.301 A 133.468 133.468 0 0 0 2670 620 A 65.097 65.097 0 0 0 2648.411 571.223 A 95.233 95.233 0 0 0 2640.5 564.5 Q 2611 542 2548 509 A 1427.839 1427.839 0 0 1 2513.297 491.087 Q 2482.484 474.609 2460.5 460.5 Q 2427 439 2403.5 406.5 A 124.02 124.02 0 0 1 2380.465 342.148 A 156.238 156.238 0 0 1 2380 330 A 112.768 112.768 0 0 1 2418.034 243.492 A 152.894 152.894 0 0 1 2431.5 232.5 Q 2480.874 196.548 2581.259 195.064 A 591.246 591.246 0 0 1 2590 195 Q 2643 195 2688 223 Q 2710 236 2726 250 A 134.446 134.446 0 0 1 2742.353 231.439 A 183.278 183.278 0 0 1 2761 216 Q 2776.296 207.002 2780.258 205.291 A 9.571 9.571 0 0 1 2781 205 L 2806 205 L 2806 375 L 2766 375 Q 2751 332 2729 298 A 230.473 230.473 0 0 0 2699.372 260.295 Q 2659.594 220 2610 220 A 60.874 60.874 0 0 0 2565.346 238.618 A 76.444 76.444 0 0 0 2564 240 A 68.505 68.505 0 0 0 2545.174 284.349 A 90.421 90.421 0 0 0 2545 290 A 76.522 76.522 0 0 0 2570.383 347.772 A 105.36 105.36 0 0 0 2577 353.5 A 316.782 316.782 0 0 0 2600.057 370.061 Q 2625.089 386.55 2661.706 405.672 A 1205.441 1205.441 0 0 0 2674 412 A 1776.985 1776.985 0 0 1 2674.827 412.421 Q 2727.246 439.16 2758.5 459.5 Q 2790 480 2812.5 510 Q 2835 540 2835 580 A 120.926 120.926 0 0 1 2766.213 695.228 Q 2714.896 722.034 2625.294 724.705 A 681.527 681.527 0 0 1 2605 725 A 244.336 244.336 0 0 1 2539.363 716.457 A 210.2 210.2 0 0 1 2494 698 A 208.294 208.294 0 0 1 2474.723 686.242 Q 2465.553 679.901 2458.264 673.142 A 120.104 120.104 0 0 1 2455 670 A 152.023 152.023 0 0 1 2439.341 688.428 A 113.239 113.239 0 0 1 2420 704 Q 2411 710 2400 715 Z M 0 710 L 0 695 L 80 665 L 355 0 L 385 0 L 670 680 L 720 695 L 720 710 L 600 710 A 188.555 188.555 0 0 1 563.672 706.695 Q 541.76 702.392 524.379 692.487 A 110.336 110.336 0 0 1 515 686.5 Q 482 663 466 625 L 415 505 L 176 505 L 110 665 L 185 695 L 185 710 L 0 710 Z M 740 710 L 740 695 L 800 680 L 800 240 L 740 225 L 740 210 L 830 210 A 147.476 147.476 0 0 1 870.346 215.233 A 109.171 109.171 0 0 1 923 248 Q 936 263 945 285 A 188.047 188.047 0 0 1 977.937 248.41 A 211.658 211.658 0 0 1 982 245 Q 1032 205 1094 205 Q 1147 205 1173.5 229.5 Q 1200 254 1200 300 A 91.368 91.368 0 0 1 1196.996 324.053 A 67.227 67.227 0 0 1 1179.5 354.5 A 68.718 68.718 0 0 1 1141.395 373.678 A 97.635 97.635 0 0 1 1125 375 Q 1111 375 1097 373 L 1085 370 L 1085 230 A 125.908 125.908 0 0 0 1009.434 255.4 A 172.074 172.074 0 0 0 992 270 Q 972 290 960 310 L 960 680 L 1020 695 L 1020 710 L 740 710 Z M 2290 438 L 2285 455 Q 2242 464 2192 470 Q 2087 485 1980 485 Q 1980 601 2012 650.5 Q 2043.644 699.449 2098.757 699.994 A 125.811 125.811 0 0 0 2100 700 Q 2139 700 2172.5 681.5 A 147.016 147.016 0 0 0 2216.299 645.27 A 140.987 140.987 0 0 0 2225.5 632.5 Q 2245 602 2245 570 L 2270 570 Q 2270 610 2246 646 A 163.612 163.612 0 0 1 2195.685 694.167 A 202.053 202.053 0 0 1 2179 703.5 A 201.773 201.773 0 0 1 2116.964 722.459 A 260.251 260.251 0 0 1 2080 725 A 373.355 373.355 0 0 1 1999.583 716.858 Q 1946.92 705.242 1907.653 677.057 A 219.078 219.078 0 0 1 1881 654.5 Q 1810 584 1810 460 A 356.643 356.643 0 0 1 1816.698 389.233 A 267.852 267.852 0 0 1 1841 319 Q 1872 259 1927.5 227 A 239.763 239.763 0 0 1 2022.156 196.758 A 300.055 300.055 0 0 1 2055 195 A 325.196 325.196 0 0 1 2120.644 201.335 A 249.996 249.996 0 0 1 2181.5 222 A 227.068 227.068 0 0 1 2232.351 255.909 A 190.718 190.718 0 0 1 2265.5 294.5 Q 2295 340 2295 395 A 210.238 210.238 0 0 1 2294.175 414.157 Q 2293.308 423.613 2291.53 431.793 A 112.213 112.213 0 0 1 2290 438 Z M 295 217 L 186 480 L 405 480 L 295 217 Z M 1465 515 A 54.219 54.219 0 0 0 1508.302 494.779 A 81.23 81.23 0 0 0 1516.5 483 A 98.935 98.935 0 0 0 1525.443 461.124 Q 1532.354 437.329 1534.267 400.296 A 588.798 588.798 0 0 0 1535 370 A 560.296 560.296 0 0 0 1533.844 332.562 Q 1531.444 296.885 1524.061 274.404 A 92.391 92.391 0 0 0 1516.5 257 A 74.711 74.711 0 0 0 1503.161 239.783 A 53.695 53.695 0 0 0 1465 225 A 54.219 54.219 0 0 0 1421.698 245.221 A 81.23 81.23 0 0 0 1413.5 257 A 98.935 98.935 0 0 0 1404.557 278.876 Q 1397.646 302.671 1395.733 339.704 A 588.798 588.798 0 0 0 1395 370 A 560.296 560.296 0 0 0 1396.156 407.437 Q 1398.556 443.115 1405.939 465.596 A 92.391 92.391 0 0 0 1413.5 483 A 74.711 74.711 0 0 0 1426.839 500.217 A 53.695 53.695 0 0 0 1465 515 Z M 1980 460 A 1366.039 1366.039 0 0 0 2017.656 459.512 Q 2056.5 458.438 2084 455 A 227.574 227.574 0 0 0 2106.031 452.578 A 277.299 277.299 0 0 0 2120 450 Q 2120.817 445.916 2123.636 433.823 A 2900.718 2900.718 0 0 1 2125 428 Q 2130 403 2130 375 Q 2130 303.627 2113.732 265.16 A 109.272 109.272 0 0 0 2108 253.5 A 113.066 113.066 0 0 0 2095.868 235.985 Q 2088.282 227.132 2079.823 222.014 A 47.135 47.135 0 0 0 2055 215 A 47.905 47.905 0 0 0 2014.053 241.065 Q 1980 294.912 1980 460 Z" vector-effect="non-scaling-stroke"/></g></svg>