<svg width="4327.501" height="465.003" viewBox="0 0 4327.501 465.003" xmlns="http://www.w3.org/2000/svg"><g id="svgGroup" stroke-linecap="round" fill-rule="evenodd" font-size="9pt" stroke="#ffffff" stroke-width="0.25mm" fill="#ffffff" style="stroke:#ffffff;stroke-width:0.25mm;fill:#ffffff"><path d="M 657 374 L 662.5 375 L 662.5 445 Q 668.5 447 681.5 450 A 223.356 223.356 0 0 0 707.931 454.175 A 181.608 181.608 0 0 0 725 455 A 343.778 343.778 0 0 0 755.911 453.711 Q 793.725 450.283 814.25 437.75 A 78.633 78.633 0 0 0 827.906 427.395 Q 835.773 419.812 839.399 410.991 A 41.644 41.644 0 0 0 842.5 395 Q 842.5 364.91 791.069 362.679 A 197.879 197.879 0 0 0 782.5 362.5 L 687.5 362.5 A 145.644 145.644 0 0 1 665.771 360.987 Q 654.761 359.322 645.818 355.825 A 63.211 63.211 0 0 1 630 347 A 54.224 54.224 0 0 1 617.051 333.004 A 47.029 47.029 0 0 1 610 307.5 A 47.598 47.598 0 0 1 620.982 277.258 A 75.41 75.41 0 0 1 633.5 265 Q 643 258 657.5 252.5 A 87.662 87.662 0 0 1 643.494 241.833 A 63.144 63.144 0 0 1 630.75 225.25 A 69.943 69.943 0 0 1 624.079 205.554 Q 622.512 197.191 622.5 187.651 A 117.139 117.139 0 0 1 622.5 187.5 A 79.035 79.035 0 0 1 628.249 156.895 A 73.856 73.856 0 0 1 650.5 127.75 A 90.257 90.257 0 0 1 679.363 112.4 Q 701.703 105 732.5 105 A 203.781 203.781 0 0 1 757.751 106.503 A 163.718 163.718 0 0 1 775.75 109.75 A 137.195 137.195 0 0 1 789.469 113.768 Q 799.999 117.499 807.5 122.5 Q 811.5 114 818 107.5 A 50.166 50.166 0 0 1 854.314 92.504 A 64.058 64.058 0 0 1 855 92.5 A 40.441 40.441 0 0 1 871.069 95.624 A 38.514 38.514 0 0 1 883.5 104.25 A 39.656 39.656 0 0 1 894.368 126.492 A 55.244 55.244 0 0 1 895 135 A 44.347 44.347 0 0 1 893.91 145.102 A 30.971 30.971 0 0 1 887.25 158.5 A 24.734 24.734 0 0 1 869.349 167.445 A 30.736 30.736 0 0 1 867.5 167.5 Q 862 167.5 855 166.5 L 850 165 L 850 105 A 28.148 28.148 0 0 0 835.091 109.407 Q 830.172 112.422 825.5 117.5 Q 821.792 121.208 818.764 127.291 A 60.385 60.385 0 0 0 817.5 130 A 72.033 72.033 0 0 1 842.376 182.575 A 96.933 96.933 0 0 1 842.5 187.5 A 79.035 79.035 0 0 1 836.751 218.106 A 73.856 73.856 0 0 1 814.5 247.25 A 90.257 90.257 0 0 1 785.637 262.601 Q 763.297 270 732.5 270 A 178.569 178.569 0 0 1 694.465 266.1 A 146.792 146.792 0 0 1 667.5 257.5 L 657.5 262.5 A 52.577 52.577 0 0 0 654.619 264.351 Q 653.17 265.355 652.015 266.329 A 21.209 21.209 0 0 0 650 268.25 A 9.539 9.539 0 0 0 647.515 274.383 A 12.35 12.35 0 0 0 647.5 275 A 13.135 13.135 0 0 0 652.629 285.671 A 20.868 20.868 0 0 0 656.25 288 A 28.253 28.253 0 0 0 661.869 290.073 Q 667.988 291.704 677.455 292.239 A 178.809 178.809 0 0 0 687.5 292.5 L 782.5 292.5 A 104.06 104.06 0 0 1 806.859 295.188 A 69.733 69.733 0 0 1 841.25 314.25 Q 861.442 334.917 862.447 371.158 A 138.516 138.516 0 0 1 862.5 375 A 76.402 76.402 0 0 1 837.043 433.516 A 100.327 100.327 0 0 1 829.25 440 A 107.059 107.059 0 0 1 798.276 455.717 Q 770.219 465 730 465 A 406.652 406.652 0 0 1 701.356 464.055 Q 687.819 463.096 676.288 461.165 A 171.848 171.848 0 0 1 657.5 457 Q 630.884 449.396 618.5 437.725 A 44.001 44.001 0 0 1 617.25 436.5 A 50.369 50.369 0 0 1 610.151 427.526 Q 605.563 420.002 605.062 411.979 A 31.69 31.69 0 0 1 605 410 A 45.684 45.684 0 0 1 606.502 397.974 A 33.614 33.614 0 0 1 615.25 382.75 A 34.359 34.359 0 0 1 634.302 373.161 A 48.817 48.817 0 0 1 642.5 372.5 Q 646.207 372.5 655.496 373.789 A 370.935 370.935 0 0 1 657 374 Z M 4089.5 374 L 4095 375 L 4095 445 Q 4101 447 4114 450 A 223.356 223.356 0 0 0 4140.431 454.175 A 181.608 181.608 0 0 0 4157.5 455 A 343.778 343.778 0 0 0 4188.411 453.711 Q 4226.225 450.283 4246.75 437.75 A 78.633 78.633 0 0 0 4260.406 427.395 Q 4268.273 419.812 4271.899 410.991 A 41.644 41.644 0 0 0 4275 395 Q 4275 364.91 4223.569 362.679 A 197.879 197.879 0 0 0 4215 362.5 L 4120 362.5 A 145.644 145.644 0 0 1 4098.271 360.987 Q 4087.261 359.322 4078.318 355.825 A 63.211 63.211 0 0 1 4062.5 347 A 54.224 54.224 0 0 1 4049.551 333.004 A 47.029 47.029 0 0 1 4042.5 307.5 A 47.598 47.598 0 0 1 4053.482 277.258 A 75.41 75.41 0 0 1 4066 265 Q 4075.5 258 4090 252.5 A 87.662 87.662 0 0 1 4075.994 241.833 A 63.144 63.144 0 0 1 4063.25 225.25 A 69.943 69.943 0 0 1 4056.579 205.554 Q 4055.012 197.191 4055 187.651 A 117.139 117.139 0 0 1 4055 187.5 A 79.035 79.035 0 0 1 4060.749 156.895 A 73.856 73.856 0 0 1 4083 127.75 A 90.257 90.257 0 0 1 4111.863 112.4 Q 4134.203 105 4165 105 A 203.781 203.781 0 0 1 4190.251 106.503 A 163.718 163.718 0 0 1 4208.25 109.75 A 137.195 137.195 0 0 1 4221.969 113.768 Q 4232.499 117.499 4240 122.5 Q 4244 114 4250.5 107.5 A 50.166 50.166 0 0 1 4286.814 92.504 A 64.058 64.058 0 0 1 4287.5 92.5 A 40.441 40.441 0 0 1 4303.569 95.624 A 38.514 38.514 0 0 1 4316 104.25 A 39.656 39.656 0 0 1 4326.868 126.492 A 55.244 55.244 0 0 1 4327.5 135 A 44.347 44.347 0 0 1 4326.41 145.102 A 30.971 30.971 0 0 1 4319.75 158.5 A 24.734 24.734 0 0 1 4301.849 167.445 A 30.736 30.736 0 0 1 4300 167.5 Q 4294.5 167.5 4287.5 166.5 L 4282.5 165 L 4282.5 105 A 28.148 28.148 0 0 0 4267.591 109.407 Q 4262.672 112.422 4258 117.5 Q 4254.292 121.208 4251.264 127.291 A 60.385 60.385 0 0 0 4250 130 A 72.033 72.033 0 0 1 4274.876 182.575 A 96.933 96.933 0 0 1 4275 187.5 A 79.035 79.035 0 0 1 4269.251 218.106 A 73.856 73.856 0 0 1 4247 247.25 A 90.257 90.257 0 0 1 4218.137 262.601 Q 4195.797 270 4165 270 A 178.569 178.569 0 0 1 4126.965 266.1 A 146.792 146.792 0 0 1 4100 257.5 L 4090 262.5 A 52.577 52.577 0 0 0 4087.119 264.351 Q 4085.67 265.355 4084.515 266.329 A 21.209 21.209 0 0 0 4082.5 268.25 A 9.539 9.539 0 0 0 4080.015 274.383 A 12.35 12.35 0 0 0 4080 275 A 13.135 13.135 0 0 0 4085.129 285.671 A 20.868 20.868 0 0 0 4088.75 288 A 28.253 28.253 0 0 0 4094.369 290.073 Q 4100.488 291.704 4109.955 292.239 A 178.809 178.809 0 0 0 4120 292.5 L 4215 292.5 A 104.06 104.06 0 0 1 4239.359 295.188 A 69.733 69.733 0 0 1 4273.75 314.25 Q 4293.942 334.917 4294.947 371.158 A 138.516 138.516 0 0 1 4295 375 A 76.402 76.402 0 0 1 4269.543 433.516 A 100.327 100.327 0 0 1 4261.75 440 A 107.059 107.059 0 0 1 4230.776 455.717 Q 4202.719 465 4162.5 465 A 406.652 406.652 0 0 1 4133.856 464.055 Q 4120.319 463.096 4108.788 461.165 A 171.848 171.848 0 0 1 4090 457 Q 4063.384 449.396 4051 437.725 A 44.001 44.001 0 0 1 4049.75 436.5 A 50.369 50.369 0 0 1 4042.651 427.526 Q 4038.063 420.002 4037.562 411.979 A 31.69 31.69 0 0 1 4037.5 410 A 45.684 45.684 0 0 1 4039.002 397.974 A 33.614 33.614 0 0 1 4047.75 382.75 A 34.359 34.359 0 0 1 4066.802 373.161 A 48.817 48.817 0 0 1 4075 372.5 Q 4078.707 372.5 4087.996 373.789 A 370.935 370.935 0 0 1 4089.5 374 Z M 1862.5 5 L 1875 5 L 1875 100 L 1855 100 A 148.363 148.363 0 0 0 1838.074 60.508 A 139.168 139.168 0 0 0 1835.5 56.5 Q 1823.5 37.5 1805.75 25 Q 1788 12.5 1765 12.5 A 55.618 55.618 0 0 0 1725.619 28.916 Q 1717.895 36.255 1711.134 46.874 A 131.833 131.833 0 0 0 1707.75 52.5 A 132.494 132.494 0 0 0 1695.999 81.517 Q 1685 119.922 1685 182.5 Q 1685 256.14 1701.031 295.937 A 108.215 108.215 0 0 0 1709.75 313.25 A 93.549 93.549 0 0 0 1728.922 335.597 A 73.614 73.614 0 0 0 1777.5 352.5 Q 1801 352.5 1822.25 339.25 Q 1843.5 326 1856.75 304 Q 1870 282 1870 257.5 L 1882.5 257.5 Q 1882.5 286 1867.25 310.75 Q 1852 335.5 1825.75 350.25 A 116.18 116.18 0 0 1 1770.487 364.968 A 137.129 137.129 0 0 1 1767.5 365 A 216.569 216.569 0 0 1 1715.576 359.129 A 146.576 146.576 0 0 1 1642.5 317.5 Q 1602.598 275.381 1598.077 201.811 A 314.968 314.968 0 0 1 1597.5 182.5 A 280.273 280.273 0 0 1 1601.146 136.086 Q 1605.986 107.276 1617.25 83.75 A 153.326 153.326 0 0 1 1643.414 44.852 A 133.159 133.159 0 0 1 1672.75 21.25 Q 1708.5 0 1755.5 0 A 106.399 106.399 0 0 1 1793.122 7.106 A 139.266 139.266 0 0 1 1813 16.5 Q 1824 22.5 1835 32.5 Q 1842.199 21.49 1849.756 14.425 A 64.269 64.269 0 0 1 1852.5 12 A 1148.978 1148.978 0 0 1 1854.625 10.469 Q 1861.625 5.438 1862.5 5 Z M 2220 357.5 L 2220 350 L 2250 342.5 L 2250 122.5 L 2220 115 L 2220 107.5 L 2265 107.5 A 73.738 73.738 0 0 1 2285.173 110.117 A 54.585 54.585 0 0 1 2311.5 126.5 A 58.948 58.948 0 0 1 2318.18 136.045 A 77.776 77.776 0 0 1 2322.5 145 A 100.144 100.144 0 0 1 2333.307 128.78 A 87.567 87.567 0 0 1 2339 122.5 A 75.811 75.811 0 0 1 2393.891 100.006 A 98.948 98.948 0 0 1 2395 100 A 114.704 114.704 0 0 1 2424.681 103.718 A 98.017 98.017 0 0 1 2445.25 111.75 A 98.907 98.907 0 0 1 2467.718 127.759 A 85.521 85.521 0 0 1 2480 142.5 Q 2492.5 161.5 2492.5 182.5 L 2492.5 342.5 L 2522.5 350 L 2522.5 357.5 L 2457.5 357.5 Q 2421.792 357.5 2414.419 329.165 A 66.298 66.298 0 0 1 2412.5 312.5 L 2412.5 182.5 A 141.557 141.557 0 0 0 2411.429 164.463 Q 2410.304 155.73 2407.997 148.545 A 56.429 56.429 0 0 0 2401.25 134.25 A 51.263 51.263 0 0 0 2394.625 126.153 Q 2385.781 117.5 2375 117.5 A 35.999 35.999 0 0 0 2352.941 125.215 Q 2347.857 129.04 2343.152 134.759 A 77.62 77.62 0 0 0 2341 137.5 A 75.406 75.406 0 0 0 2333.656 149.297 A 94.121 94.121 0 0 0 2330 157.5 L 2330 342.5 L 2360 350 L 2360 357.5 L 2220 357.5 Z M 3712.5 357.5 L 3712.5 350 L 3742.5 342.5 L 3742.5 122.5 L 3712.5 115 L 3712.5 107.5 L 3757.5 107.5 A 73.738 73.738 0 0 1 3777.673 110.117 A 54.585 54.585 0 0 1 3804 126.5 A 58.948 58.948 0 0 1 3810.68 136.045 A 77.776 77.776 0 0 1 3815 145 A 100.144 100.144 0 0 1 3825.807 128.78 A 87.567 87.567 0 0 1 3831.5 122.5 A 75.811 75.811 0 0 1 3886.391 100.006 A 98.948 98.948 0 0 1 3887.5 100 A 114.704 114.704 0 0 1 3917.181 103.718 A 98.017 98.017 0 0 1 3937.75 111.75 A 98.907 98.907 0 0 1 3960.218 127.759 A 85.521 85.521 0 0 1 3972.5 142.5 Q 3985 161.5 3985 182.5 L 3985 342.5 L 4015 350 L 4015 357.5 L 3950 357.5 Q 3914.292 357.5 3906.919 329.165 A 66.298 66.298 0 0 1 3905 312.5 L 3905 182.5 A 141.557 141.557 0 0 0 3903.929 164.463 Q 3902.804 155.73 3900.497 148.545 A 56.429 56.429 0 0 0 3893.75 134.25 A 51.263 51.263 0 0 0 3887.125 126.153 Q 3878.281 117.5 3867.5 117.5 A 35.999 35.999 0 0 0 3845.441 125.215 Q 3840.357 129.04 3835.652 134.759 A 77.62 77.62 0 0 0 3833.5 137.5 A 75.406 75.406 0 0 0 3826.156 149.297 A 94.121 94.121 0 0 0 3822.5 157.5 L 3822.5 342.5 L 3852.5 350 L 3852.5 357.5 L 3712.5 357.5 Z M 2845 282.5 L 2845 122.5 L 2815 115 L 2815 107.5 L 2880 107.5 Q 2915.708 107.5 2923.081 135.835 A 66.298 66.298 0 0 1 2925 152.5 L 2925 282.5 A 141.557 141.557 0 0 0 2926.071 300.537 Q 2927.196 309.271 2929.503 316.455 A 56.429 56.429 0 0 0 2936.25 330.75 A 51.263 51.263 0 0 0 2942.875 338.847 Q 2951.719 347.5 2962.5 347.5 Q 2979.103 347.5 2992.887 331.392 A 77.559 77.559 0 0 0 2996 327.5 A 87.036 87.036 0 0 0 3000.151 321.245 Q 3002.162 317.936 3004.236 314 A 194.36 194.36 0 0 0 3007.5 307.5 L 3007.5 122.5 L 2977.5 115 L 2977.5 107.5 L 3117.5 107.5 L 3117.5 115 L 3087.5 122.5 L 3087.5 360 L 3082.5 360 A 106.389 106.389 0 0 1 3060.913 357.948 Q 3047.83 355.235 3037.885 348.936 A 57.088 57.088 0 0 1 3027 340 Q 3018.5 331 3015 320 Q 3008 332.5 2998.5 342.5 A 75.811 75.811 0 0 1 2943.609 364.994 A 98.948 98.948 0 0 1 2942.5 365 A 114.704 114.704 0 0 1 2912.819 361.282 A 98.017 98.017 0 0 1 2892.25 353.25 A 98.907 98.907 0 0 1 2869.782 337.241 A 85.521 85.521 0 0 1 2857.5 322.5 Q 2845 303.5 2845 282.5 Z M 1200 360 L 1187.5 360 L 1187.5 275 L 1207.5 275 Q 1214 296 1226.5 314 A 105.727 105.727 0 0 0 1245.05 334.918 A 71.338 71.338 0 0 0 1292.5 352.5 A 68.606 68.606 0 0 0 1304.589 351.506 Q 1316.849 349.307 1324.25 342.25 A 32.859 32.859 0 0 0 1333.087 327.307 Q 1335 320.727 1335 312.5 A 32.548 32.548 0 0 0 1324.206 288.112 A 47.616 47.616 0 0 0 1320.25 284.75 A 163.745 163.745 0 0 0 1310.628 278.007 Q 1296.641 268.86 1274 257 A 713.92 713.92 0 0 1 1256.649 248.044 Q 1248.945 243.924 1242.346 240.101 A 312.503 312.503 0 0 1 1230.25 232.75 Q 1213.5 222 1201.75 205.75 A 62.01 62.01 0 0 1 1190.232 173.574 A 78.119 78.119 0 0 1 1190 167.5 A 56.384 56.384 0 0 1 1209.017 124.246 A 76.447 76.447 0 0 1 1215.75 118.75 Q 1241.5 100 1295 100 Q 1321.5 100 1344 114 Q 1355 120.5 1363 127.5 A 67.223 67.223 0 0 1 1371.176 118.22 A 91.639 91.639 0 0 1 1380.5 110.5 A 460.152 460.152 0 0 1 1383.441 108.783 Q 1389.281 105.407 1390.5 105 L 1403 105 L 1403 190 L 1383 190 Q 1375.5 168.5 1364.5 151.5 A 115.236 115.236 0 0 0 1349.686 132.648 Q 1339.586 122.417 1328.221 117.381 A 56.694 56.694 0 0 0 1305 112.5 Q 1291.5 112.5 1282 122.5 A 34.253 34.253 0 0 0 1272.587 144.675 A 45.21 45.21 0 0 0 1272.5 147.5 A 38.261 38.261 0 0 0 1285.191 176.386 A 52.68 52.68 0 0 0 1288.5 179.25 A 158.391 158.391 0 0 0 1300.029 187.531 Q 1314.593 197.124 1337 208.5 A 744.659 744.659 0 0 1 1352.513 216.62 Q 1360.452 220.904 1367.125 224.804 A 298.169 298.169 0 0 1 1379.25 232.25 Q 1395 242.5 1406.25 257.5 A 56.272 56.272 0 0 1 1417.466 290.328 A 69.691 69.691 0 0 1 1417.5 292.5 A 60.463 60.463 0 0 1 1383.107 350.114 Q 1357.448 363.517 1312.647 364.853 A 340.763 340.763 0 0 1 1302.5 365 A 122.168 122.168 0 0 1 1269.682 360.729 A 105.1 105.1 0 0 1 1247 351.5 A 104.147 104.147 0 0 1 1237.361 345.621 Q 1232.777 342.451 1229.132 339.071 A 60.052 60.052 0 0 1 1227.5 337.5 Q 1219.5 348.5 1210 354.5 A 67.254 67.254 0 0 1 1203.34 358.389 A 79.571 79.571 0 0 1 1200 360 Z M 2567.5 360 L 2555 360 L 2555 275 L 2575 275 Q 2581.5 296 2594 314 A 105.727 105.727 0 0 0 2612.55 334.918 A 71.338 71.338 0 0 0 2660 352.5 A 68.606 68.606 0 0 0 2672.089 351.506 Q 2684.349 349.307 2691.75 342.25 A 32.859 32.859 0 0 0 2700.587 327.307 Q 2702.5 320.727 2702.5 312.5 A 32.548 32.548 0 0 0 2691.706 288.112 A 47.616 47.616 0 0 0 2687.75 284.75 A 163.745 163.745 0 0 0 2678.128 278.007 Q 2664.141 268.86 2641.5 257 A 713.92 713.92 0 0 1 2624.149 248.044 Q 2616.445 243.924 2609.846 240.101 A 312.503 312.503 0 0 1 2597.75 232.75 Q 2581 222 2569.25 205.75 A 62.01 62.01 0 0 1 2557.732 173.574 A 78.119 78.119 0 0 1 2557.5 167.5 A 56.384 56.384 0 0 1 2576.517 124.246 A 76.447 76.447 0 0 1 2583.25 118.75 Q 2609 100 2662.5 100 Q 2689 100 2711.5 114 Q 2722.5 120.5 2730.5 127.5 A 67.223 67.223 0 0 1 2738.676 118.22 A 91.639 91.639 0 0 1 2748 110.5 A 460.152 460.152 0 0 1 2750.941 108.783 Q 2756.781 105.407 2758 105 L 2770.5 105 L 2770.5 190 L 2750.5 190 Q 2743 168.5 2732 151.5 A 115.236 115.236 0 0 0 2717.186 132.648 Q 2707.086 122.417 2695.721 117.381 A 56.694 56.694 0 0 0 2672.5 112.5 Q 2659 112.5 2649.5 122.5 A 34.253 34.253 0 0 0 2640.087 144.675 A 45.21 45.21 0 0 0 2640 147.5 A 38.261 38.261 0 0 0 2652.691 176.386 A 52.68 52.68 0 0 0 2656 179.25 A 158.391 158.391 0 0 0 2667.529 187.531 Q 2682.093 197.124 2704.5 208.5 A 744.659 744.659 0 0 1 2720.013 216.62 Q 2727.952 220.904 2734.625 224.804 A 298.169 298.169 0 0 1 2746.75 232.25 Q 2762.5 242.5 2773.75 257.5 A 56.272 56.272 0 0 1 2784.966 290.328 A 69.691 69.691 0 0 1 2785 292.5 A 60.463 60.463 0 0 1 2750.607 350.114 Q 2724.948 363.517 2680.147 364.853 A 340.763 340.763 0 0 1 2670 365 A 122.168 122.168 0 0 1 2637.182 360.729 A 105.1 105.1 0 0 1 2614.5 351.5 A 104.147 104.147 0 0 1 2604.861 345.621 Q 2600.277 342.451 2596.632 339.071 A 60.052 60.052 0 0 1 2595 337.5 Q 2587 348.5 2577.5 354.5 A 67.254 67.254 0 0 1 2570.84 358.389 A 79.571 79.571 0 0 1 2567.5 360 Z M 0 357.5 L 0 350 L 40 335 L 177.5 2.5 L 192.5 2.5 L 335 342.5 L 360 350 L 360 357.5 L 300 357.5 A 94.277 94.277 0 0 1 281.836 355.848 Q 270.88 353.696 262.189 348.744 A 55.168 55.168 0 0 1 257.5 345.75 Q 241 334 233 315 L 207.5 255 L 88 255 L 55 335 L 92.5 350 L 92.5 357.5 L 0 357.5 Z M 3340 272.5 L 3340 120 L 3305 120 L 3305 107.5 L 3340 107.5 L 3340 82.5 Q 3340 46.792 3368.335 39.419 A 66.298 66.298 0 0 1 3385 37.5 L 3420 37.5 L 3420 107.5 L 3490 107.5 L 3490 120 L 3420 120 L 3420 272.5 A 350.913 350.913 0 0 0 3420.557 293.081 Q 3421.683 312.147 3425.081 324.274 A 51.743 51.743 0 0 0 3429.5 335.5 Q 3438.683 351.933 3456.275 352.481 A 39.308 39.308 0 0 0 3457.5 352.5 Q 3475.5 352.5 3489 335 Q 3502.5 317.5 3502.5 287.5 L 3515 287.5 A 118.913 118.913 0 0 1 3513.008 309.978 Q 3510.523 322.877 3504.936 332.967 A 61.698 61.698 0 0 1 3496.5 344.75 A 61.227 61.227 0 0 1 3455.841 364.6 A 84.79 84.79 0 0 1 3447.5 365 A 153.532 153.532 0 0 1 3420.3 362.703 A 112.188 112.188 0 0 1 3390.25 353 A 95.409 95.409 0 0 1 3366.249 336.385 A 83.794 83.794 0 0 1 3353 320 A 87.439 87.439 0 0 1 3340.079 276.607 A 105.5 105.5 0 0 1 3340 272.5 Z M 370 357.5 L 370 350 L 400 342.5 L 400 122.5 L 370 115 L 370 107.5 L 415 107.5 A 73.738 73.738 0 0 1 435.173 110.117 A 54.585 54.585 0 0 1 461.5 126.5 A 58.948 58.948 0 0 1 468.18 136.045 A 77.776 77.776 0 0 1 472.5 145 A 94.024 94.024 0 0 1 488.968 126.705 A 105.83 105.83 0 0 1 491 125 Q 516 105 547 105 A 91.743 91.743 0 0 1 561.567 106.08 Q 577.434 108.637 586.75 117.25 Q 599.534 129.07 599.984 150.896 A 77.91 77.91 0 0 1 600 152.5 A 45.684 45.684 0 0 1 598.498 164.527 A 33.614 33.614 0 0 1 589.75 179.75 A 34.359 34.359 0 0 1 570.698 189.339 A 48.817 48.817 0 0 1 562.5 190 Q 555.5 190 548.5 189 L 542.5 187.5 L 542.5 117.5 A 62.954 62.954 0 0 0 504.717 130.2 A 86.037 86.037 0 0 0 496 137.5 Q 486 147.5 480 157.5 L 480 342.5 L 510 350 L 510 357.5 L 370 357.5 Z M 1145 221.5 L 1142.5 230 A 503.562 503.562 0 0 1 1114.258 235.039 A 617.5 617.5 0 0 1 1096 237.5 Q 1043.5 245 990 245 Q 990 291.679 1000.363 316.822 A 67.417 67.417 0 0 0 1006 327.75 A 58.413 58.413 0 0 0 1019.368 342.589 Q 1032.054 352.326 1049.379 352.497 A 62.905 62.905 0 0 0 1050 352.5 Q 1069.5 352.5 1086.25 343.25 A 73.508 73.508 0 0 0 1108.149 325.135 A 70.493 70.493 0 0 0 1112.75 318.75 Q 1122.5 303.5 1122.5 287.5 L 1135 287.5 A 66.36 66.36 0 0 1 1125.314 321.823 A 81.535 81.535 0 0 1 1123 325.5 A 81.806 81.806 0 0 1 1097.842 349.584 A 101.026 101.026 0 0 1 1089.5 354.25 A 100.887 100.887 0 0 1 1058.482 363.73 A 130.126 130.126 0 0 1 1040 365 A 186.678 186.678 0 0 1 999.792 360.929 Q 973.46 355.121 953.826 341.029 A 109.539 109.539 0 0 1 940.5 329.75 A 116.369 116.369 0 0 1 909.219 272.067 A 175.054 175.054 0 0 1 905 232.5 A 178.322 178.322 0 0 1 908.349 197.117 A 133.926 133.926 0 0 1 920.5 162 Q 936 132 963.75 116 A 119.882 119.882 0 0 1 1011.078 100.879 A 150.028 150.028 0 0 1 1027.5 100 A 162.598 162.598 0 0 1 1060.322 103.168 A 124.998 124.998 0 0 1 1090.75 113.5 A 113.534 113.534 0 0 1 1116.175 130.455 A 95.359 95.359 0 0 1 1132.75 149.75 Q 1147.5 172.5 1147.5 200 A 105.119 105.119 0 0 1 1147.087 209.579 Q 1146.654 214.307 1145.765 218.397 A 56.107 56.107 0 0 1 1145 221.5 Z M 3147.5 357.5 L 3147.5 350 L 3177.5 342.5 L 3177.5 22.5 L 3147.5 15 L 3147.5 7.5 L 3212.5 7.5 Q 3248.208 7.5 3255.581 35.835 A 66.298 66.298 0 0 1 3257.5 52.5 L 3257.5 342.5 L 3287.5 350 L 3287.5 357.5 L 3147.5 357.5 Z M 2007.212 360.643 A 175.549 175.549 0 0 0 2047.5 365 A 175.549 175.549 0 0 0 2087.788 360.643 A 116.409 116.409 0 0 0 2144.75 329.75 A 116.409 116.409 0 0 0 2175.643 272.788 A 175.549 175.549 0 0 0 2180 232.5 A 175.549 175.549 0 0 0 2175.643 192.213 A 116.409 116.409 0 0 0 2144.75 135.25 A 116.409 116.409 0 0 0 2087.788 104.357 A 175.549 175.549 0 0 0 2047.5 100 A 175.549 175.549 0 0 0 2007.212 104.357 A 116.409 116.409 0 0 0 1950.25 135.25 A 116.409 116.409 0 0 0 1919.357 192.213 A 175.549 175.549 0 0 0 1915 232.5 A 175.549 175.549 0 0 0 1919.357 272.788 A 116.409 116.409 0 0 0 1950.25 329.75 A 116.409 116.409 0 0 0 2007.212 360.643 Z M 3542.5 357.5 L 3542.5 350 L 3572.5 342.5 L 3572.5 122.5 L 3542.5 115 L 3542.5 107.5 L 3607.5 107.5 Q 3643.208 107.5 3650.581 135.835 A 66.298 66.298 0 0 1 3652.5 152.5 L 3652.5 342.5 L 3682.5 350 L 3682.5 357.5 L 3542.5 357.5 Z M 2075.205 337.517 A 86.254 86.254 0 0 0 2081.25 327 A 97.249 97.249 0 0 0 2087.897 308.205 Q 2093.055 287.94 2094.467 257.188 A 539.391 539.391 0 0 0 2095 232.5 Q 2095 166 2081.25 138 A 83.239 83.239 0 0 0 2074.223 126.08 Q 2070.066 120.301 2065.446 116.599 A 28.099 28.099 0 0 0 2047.5 110 Q 2031.696 110 2019.795 127.483 A 86.254 86.254 0 0 0 2013.75 138 A 97.249 97.249 0 0 0 2007.103 156.796 Q 2001.945 177.06 2000.533 207.812 A 539.391 539.391 0 0 0 2000 232.5 Q 2000 299 2013.75 327 A 83.239 83.239 0 0 0 2020.777 338.92 Q 2024.934 344.699 2029.554 348.401 A 28.099 28.099 0 0 0 2047.5 355 Q 2063.304 355 2075.205 337.517 Z M 147.5 111 L 93 242.5 L 202.5 242.5 L 147.5 111 Z M 732.5 260 Q 749 260 758.25 244 A 49.467 49.467 0 0 0 762.721 233.062 Q 766.177 221.165 767.134 202.648 A 294.399 294.399 0 0 0 767.5 187.5 Q 767.5 147 758.25 131 A 37.356 37.356 0 0 0 751.58 122.392 A 26.848 26.848 0 0 0 732.5 115 Q 716 115 706.75 131 A 49.467 49.467 0 0 0 702.279 141.938 Q 698.823 153.836 697.866 172.352 A 294.399 294.399 0 0 0 697.5 187.5 Q 697.5 228 706.75 244 A 37.356 37.356 0 0 0 713.42 252.609 A 26.848 26.848 0 0 0 732.5 260 Z M 4165 260 Q 4181.5 260 4190.75 244 A 49.467 49.467 0 0 0 4195.221 233.062 Q 4198.677 221.165 4199.634 202.648 A 294.399 294.399 0 0 0 4200 187.5 Q 4200 147 4190.75 131 A 37.356 37.356 0 0 0 4184.08 122.392 A 26.848 26.848 0 0 0 4165 115 Q 4148.5 115 4139.25 131 A 49.467 49.467 0 0 0 4134.779 141.938 Q 4131.323 153.836 4130.366 172.352 A 294.399 294.399 0 0 0 4130 187.5 Q 4130 228 4139.25 244 A 37.356 37.356 0 0 0 4145.92 252.609 A 26.848 26.848 0 0 0 4165 260 Z M 1041.892 230.014 A 204.842 204.842 0 0 0 1042 230 A 113.787 113.787 0 0 0 1053.016 228.789 A 138.649 138.649 0 0 0 1060 227.5 Q 1060.408 225.458 1061.818 219.412 A 1450.427 1450.427 0 0 1 1062.5 216.5 Q 1065 204 1065 190 Q 1065 154.314 1056.866 135.08 A 54.636 54.636 0 0 0 1054 129.25 A 56.533 56.533 0 0 0 1047.934 120.493 Q 1038.943 110 1027.5 110 A 23.952 23.952 0 0 0 1007.027 123.033 Q 990 149.956 990 232.5 Q 1021.913 232.5 1041.892 230.014 Z M 3594.339 75.229 A 36.963 36.963 0 0 0 3607.5 77.5 A 44.287 44.287 0 0 0 3608.462 77.49 A 33.736 33.736 0 0 0 3632.5 67.5 A 33.218 33.218 0 0 0 3640.229 55.662 A 36.963 36.963 0 0 0 3642.5 42.5 A 44.287 44.287 0 0 0 3642.49 41.539 A 33.736 33.736 0 0 0 3632.5 17.5 A 33.218 33.218 0 0 0 3620.661 9.771 A 36.963 36.963 0 0 0 3607.5 7.5 A 44.287 44.287 0 0 0 3606.538 7.511 A 33.736 33.736 0 0 0 3582.5 17.5 A 33.218 33.218 0 0 0 3574.771 29.339 A 36.963 36.963 0 0 0 3572.5 42.5 A 44.287 44.287 0 0 0 3572.51 43.462 A 33.736 33.736 0 0 0 3582.5 67.5 A 33.218 33.218 0 0 0 3594.339 75.229 Z" vector-effect="non-scaling-stroke"/></g></svg>